<?xml version="1.0" encoding="utf-8"?>
<!-- Generator: Adobe Illustrator 24.1.2, SVG Export Plug-In . SVG Version: 6.00 Build 0)  -->
<svg version="1.1" id="Layer_1" xmlns="http://www.w3.org/2000/svg" xmlns:xlink="http://www.w3.org/1999/xlink" x="0px" y="0px"
	 viewBox="0 0 357.17 155.43" style="enable-background:new 0 0 357.17 155.43;" xml:space="preserve">
<style type="text/css">
	.st0{fill:#231300;}
</style>
<g>
	<g>
		<path class="st0" d="M279.02,0.06c-4.81,0-88.39-0.06-92.46-0.06c-11.45,0-35.37,23.86-57.53,41.18
			c-8.16,6.37-13.75,8.32-26.46,8.32c-13.66,0-17.44-8.47-17.44-8.47l-3.79,17.97l108.61,0.05c0,0,1.29-6.09,1.91-9.05
			c0.64-3.09,3.31-3.71,5.86-3.71c1.21,0,2.31,0.11,2.31,0.11l-7.73,35.47c0,0,18.07-6.53,21.11-21.15
			c1.14-5.51,1.88-8.47,3.13-14.45c1.14-5.45,3.96-5.6,9.73-5.6c4.35,0,5.71,2.79,5.2,5.27c-0.62,3.01-2.11,4.78-5.45,4.78
			c-2.47,0-6.18,0.08-6.18,0.08l-1.44,8.04c2.13,0,43.49,0.08,58.25,0.08c2.38,0,3.94-1.49,4.39-3.68c-1.76,0-44.64,0-46.24,0
			c0.06-0.47,1.13-5.19,1.32-5.85c0.7-2.43,2.58-2.88,4.56-2.88c1.59,0,10.22-0.02,16.31-0.02c6.09,0,12.24,0,19.77,0
			c5.61,0,6.39-0.51,7.15-4.15c1.31-6.29,4.93-23.03,6.25-29.79C291.86,4.04,286.84,0.06,279.02,0.06z"/>
	</g>
	<path class="st0" d="M226.6,45.53c-0.18,1.46-0.9,1.93-2.52,1.93c-1.55,0-2.34-0.4-2.18-1.93c0.16-1.43,1.11-1.93,2.66-1.93
		C226.18,43.6,226.76,44.17,226.6,45.53z"/>
</g>
<g>
	<polygon class="st0" points="272.97,93.66 257.61,93.66 256.51,98.78 271.87,98.78 	"/>
	<path class="st0" d="M355.67,109.02l1.49-6.81H341.8l-2.21,10.24c-0.22,0.91-0.72,1.7-1.53,2.37c-0.8,0.67-1.65,1.01-2.56,1.01
		h-3.44l4.73-22.17h-15.36l-7.98,37.53h-7.63c1.82-2.03,3-4.3,3.56-6.81h-15.36l-0.71,3.37c-0.22,0.95-0.72,1.76-1.53,2.43
		c-0.8,0.67-1.67,1.01-2.62,1.01h-3.37l4.34-20.49c0.22-0.95,0.73-1.75,1.52-2.39c0.8-0.65,1.68-0.97,2.63-0.97
		c1.81,0,2.72,0.89,2.72,2.66c0,0.22-0.03,0.45-0.07,0.71l-0.71,3.44h15.36c0.17-0.82,0.26-1.64,0.26-2.46
		c0-2.72-0.9-4.98-2.69-6.77c-1.8-1.79-4.12-2.69-6.97-2.69h-13.68c-3.29,0-6.34,1.17-9.17,3.5c-2.83,2.33-4.59,5.14-5.28,8.42
		l-3.64,17.05H265l6.16-28.97H255.8l-6.17,28.97h-10.54c1.86-2.03,3.05-4.3,3.56-6.81l4.02-18.8c0.17-0.82,0.26-1.64,0.26-2.46
		c0-2.72-0.9-4.98-2.69-6.77c-1.8-1.79-4.12-2.69-6.97-2.69h-27.29l-9.07,42.65h126.83l3.24-15.36h3.44c1.81,0,2.72,0.91,2.72,2.72
		c0,0.22-0.02,0.45-0.06,0.71l-2.53,11.93h15.55l1.04-5.12l0.6-3.44c0.17-0.82,0.26-1.62,0.26-2.4c0-2.81-0.95-5.12-2.85-6.94
		C352.63,116.04,354.81,112.91,355.67,109.02z M232.02,102.22l-5.44,25.54c-0.22,0.95-0.71,1.76-1.49,2.43
		c-0.78,0.67-1.64,1.01-2.59,1.01h-5.12l6.87-32.41h5.12c1.82,0,2.72,0.91,2.72,2.72C232.08,101.72,232.06,101.96,232.02,102.22z"/>
	<path class="st0" d="M173.43,131.19h-3.33c-1.82,0-2.72-0.91-2.72-2.72c0-0.21,0.02-0.45,0.06-0.71l5.45-25.54h-15.36l-6.17,28.97
		h-7.07c1.86-2.03,3.07-4.3,3.63-6.81l2.2-10.24c0.17-0.86,0.26-1.71,0.26-2.53c0-2.68-0.91-4.91-2.72-6.71
		c-1.81-1.79-4.13-2.69-6.93-2.69h-10.24l1.81-8.55h-15.36l-7.99,37.53h-7.6c1.86-2.03,3.05-4.3,3.56-6.81l2.2-10.24
		c0.17-0.86,0.26-1.71,0.26-2.53c0-2.68-0.91-4.91-2.72-6.71c-1.81-1.79-4.13-2.69-6.94-2.69H84.03c-3.29,0-6.34,1.17-9.17,3.5
		c-2.83,2.33-4.59,5.14-5.28,8.42l-3.64,17.05h-7.8l5.38-25.6c0.17-0.82,0.26-1.64,0.26-2.46c0-2.72-0.9-4.98-2.69-6.77
		c-1.79-1.79-4.12-2.69-6.97-2.69H21c-3.28,0-6.34,1.16-9.17,3.5c-2.83,2.33-4.59,5.14-5.28,8.43L0,136.31h14.47l7.26-34.09
		c0.22-0.95,0.9-2.16,2.27-2.79c2.56-1.18,3.59-0.64,4.54-0.64l-8.04,37.53h15.95l7.97-37.53c0.82,0,2.54-0.34,3.92,0.35
		c1.56,0.78,1.51,2.87,1.47,3.09l-7.26,34.09H172.3l-4.11,19.12c0,0,16.93-6.26,19.6-19.69l7.26-33.53h-15.36L173.43,131.19z
		 M92.45,110.71l-3.63,17.05c-0.22,0.95-0.72,1.76-1.52,2.43c-0.8,0.67-1.68,1.01-2.63,1.01H81.3l4.34-20.49
		c0.22-0.95,0.72-1.75,1.52-2.39c0.8-0.65,1.67-0.97,2.63-0.97c1.82,0,2.72,0.89,2.72,2.66C92.52,110.21,92.5,110.45,92.45,110.71z
		 M135.46,110.71l-3.63,17.05c-0.22,0.95-0.72,1.76-1.52,2.43c-0.8,0.67-1.67,1.01-2.62,1.01h-3.37l5.06-23.85h3.43
		c1.81,0,2.72,0.89,2.72,2.66C135.52,110.25,135.5,110.49,135.46,110.71z"/>
</g>
</svg>
